<svg xmlns="http://www.w3.org/2000/svg" xmlns:xlink="http://www.w3.org/1999/xlink" width="1080" zoomAndPan="magnify" viewBox="0 0 810 809.999993" height="1080" preserveAspectRatio="xMidYMid meet" version="1.0"><path fill="#000000" d="M 480.90625 423.46875 C 480.90625 423.46875 474.175781 452.28125 455.777344 474.535156 C 443.957031 488.855469 427.320312 500.464844 404.550781 499.921875 C 381.390625 499.359375 364.570312 487.121094 352.710938 472.589844 C 334.789062 450.644531 328.195312 423.46875 328.195312 423.46875 Z M 480.90625 423.46875 " fill-opacity="1" fill-rule="nonzero"/><path fill="#ff7bac" d="M 455.777344 474.535156 C 443.957031 488.855469 427.320312 500.464844 404.550781 499.921875 C 381.390625 499.359375 364.570312 487.121094 352.710938 472.589844 C 364.765625 462.6875 382.871094 456.40625 403.113281 456.40625 C 424.667969 456.40625 443.804688 463.527344 455.777344 474.535156 Z M 455.777344 474.535156 " fill-opacity="1" fill-rule="nonzero"/><path fill="#000000" d="M 116.152344 474.660156 C 110.914062 474.660156 105.898438 471.652344 103.59375 466.574219 C 100.4375 459.636719 103.496094 451.441406 110.425781 448.28125 L 254.003906 382.753906 L 106.972656 338.582031 C 99.667969 336.386719 95.53125 328.695312 97.726562 321.378906 C 99.917969 314.0625 107.601562 309.921875 114.910156 312.121094 L 282.320312 362.402344 C 290.210938 364.78125 295.671875 371.621094 296.230469 379.859375 C 296.789062 388.097656 292.304688 395.621094 284.820312 399.046875 L 121.867188 473.414062 C 120.007812 474.269531 118.066406 474.660156 116.152344 474.660156 Z M 274.382812 388.863281 Z M 274.382812 388.863281 " fill-opacity="1" fill-rule="nonzero"/><path fill="#000000" d="M 693.664062 474.660156 C 691.75 474.660156 689.808594 474.253906 687.949219 473.414062 L 525.007812 399.046875 C 517.507812 395.621094 513.023438 388.097656 513.597656 379.859375 C 514.15625 371.632812 519.617188 364.78125 527.511719 362.402344 L 694.90625 312.121094 C 702.199219 309.921875 709.894531 314.078125 712.089844 321.378906 C 714.28125 328.679688 710.132812 336.386719 702.839844 338.582031 L 555.828125 382.738281 L 699.402344 448.265625 C 706.332031 451.429688 709.390625 459.625 706.234375 466.5625 C 703.917969 471.667969 698.902344 474.660156 693.664062 474.660156 Z M 693.664062 474.660156 " fill-opacity="1" fill-rule="nonzero"/><path fill="#000000" d="M 480.90625 423.46875 C 480.90625 423.46875 474.175781 452.28125 455.777344 474.535156 C 443.957031 488.855469 427.320312 500.464844 404.550781 499.921875 C 381.390625 499.359375 364.570312 487.121094 352.710938 472.589844 C 334.789062 450.644531 328.195312 423.46875 328.195312 423.46875 Z M 480.90625 423.46875 " fill-opacity="1" fill-rule="nonzero"/><path fill="#ff7bac" d="M 455.777344 474.535156 C 443.957031 488.855469 427.320312 500.464844 404.550781 499.921875 C 381.390625 499.359375 364.570312 487.121094 352.710938 472.589844 C 364.765625 462.6875 382.871094 456.40625 403.113281 456.40625 C 424.667969 456.40625 443.804688 463.527344 455.777344 474.535156 Z M 455.777344 474.535156 " fill-opacity="1" fill-rule="nonzero"/><path fill="#000000" d="M 116.152344 474.660156 C 110.914062 474.660156 105.898438 471.652344 103.59375 466.574219 C 100.4375 459.636719 103.496094 451.441406 110.425781 448.28125 L 254.003906 382.753906 L 106.972656 338.582031 C 99.667969 336.386719 95.53125 328.695312 97.726562 321.378906 C 99.917969 314.0625 107.601562 309.921875 114.910156 312.121094 L 282.320312 362.402344 C 290.210938 364.78125 295.671875 371.621094 296.230469 379.859375 C 296.789062 388.097656 292.304688 395.621094 284.820312 399.046875 L 121.867188 473.414062 C 120.007812 474.269531 118.066406 474.660156 116.152344 474.660156 Z M 274.382812 388.863281 Z M 274.382812 388.863281 " fill-opacity="1" fill-rule="nonzero"/><path fill="#000000" d="M 693.664062 474.660156 C 691.75 474.660156 689.808594 474.253906 687.949219 473.414062 L 525.007812 399.046875 C 517.507812 395.621094 513.023438 388.097656 513.597656 379.859375 C 514.15625 371.632812 519.617188 364.78125 527.511719 362.402344 L 694.90625 312.121094 C 702.199219 309.921875 709.894531 314.078125 712.089844 321.378906 C 714.28125 328.679688 710.132812 336.386719 702.839844 338.582031 L 555.828125 382.738281 L 699.402344 448.265625 C 706.332031 451.429688 709.390625 459.625 706.234375 466.5625 C 703.917969 471.667969 698.902344 474.660156 693.664062 474.660156 Z M 693.664062 474.660156 " fill-opacity="1" fill-rule="nonzero"/></svg>